<svg xmlns="http://www.w3.org/2000/svg" viewBox="0 0 477.873 477.873"><path d="M392.533 238.937c-9.426 0-17.067 7.641-17.067 17.067V426.67c0 9.426-7.641 17.067-17.067 17.067H51.2c-9.426 0-17.067-7.641-17.067-17.067V85.337c0-9.426 7.641-17.067 17.067-17.067H256c9.426 0 17.067-7.641 17.067-17.067S265.426 34.137 256 34.137H51.2C22.923 34.137 0 57.06 0 85.337V426.67c0 28.277 22.923 51.2 51.2 51.2h307.2c28.277 0 51.2-22.923 51.2-51.2V256.003c0-9.425-7.641-17.066-17.067-17.066z"/><path d="M458.742 19.142A65.328 65.328 0 0 0 412.536.004a64.85 64.85 0 0 0-46.199 19.149L141.534 243.937a17.254 17.254 0 0 0-4.113 6.673l-34.133 102.4c-2.979 8.943 1.856 18.607 10.799 21.585 1.735.578 3.552.873 5.38.875a17.336 17.336 0 0 0 5.393-.87l102.4-34.133c2.515-.84 4.8-2.254 6.673-4.13l224.802-224.802c25.515-25.512 25.518-66.878.007-92.393zm-24.139 68.277L212.736 309.286l-66.287 22.135 22.067-66.202L390.468 43.353c12.202-12.178 31.967-12.158 44.145.044a31.215 31.215 0 0 1 9.12 21.955 31.043 31.043 0 0 1-9.13 22.067z"/></svg>