<svg xmlns="http://www.w3.org/2000/svg" viewBox="0 0 512 512"><path d="M34.133 221.867C15.36 221.867 0 237.227 0 256s15.36 34.133 34.133 34.133c18.773 0 34.133-15.36 34.133-34.133s-15.359-34.133-34.133-34.133zm0 51.2c-9.387 0-17.067-7.68-17.067-17.067s7.68-17.067 17.067-17.067S51.2 246.613 51.2 256s-7.68 17.067-17.067 17.067zM477.867 221.867c-18.773 0-34.133 15.36-34.133 34.133s15.36 34.133 34.133 34.133C496.64 290.133 512 274.773 512 256s-15.36-34.133-34.133-34.133zm0 51.2c-9.387 0-17.067-7.68-17.067-17.067s7.68-17.067 17.067-17.067 17.067 7.68 17.067 17.067c-.001 9.387-7.681 17.067-17.067 17.067zM256 85.333c-91.006 0-165.966 72.19-170.452 162.133h-.215v17.067h.215C90.034 354.476 164.994 426.667 256 426.667s165.966-72.19 170.452-162.133h.215v-17.067h-.215C421.966 157.524 347.006 85.333 256 85.333zm0 17.067c81.92 0 149.333 64 153.6 145.067H102.4C106.667 166.4 174.08 102.4 256 102.4zm0 307.2c-81.92 0-149.333-64-153.6-145.067h307.2C405.333 345.6 337.92 409.6 256 409.6z"/></svg>