<svg xmlns="http://www.w3.org/2000/svg" viewBox="0 0 512 512">
	<g transform="translate(1 1)">
		<path d="M33.133,220.867C14.36,220.867-1,236.227-1,255s15.36,34.133,34.133,34.133c18.773,0,34.133-15.36,34.133-34.133
			S51.907,220.867,33.133,220.867z M33.133,272.067c-9.387,0-17.067-7.68-17.067-17.067c0-9.387,7.68-17.067,17.067-17.067
			c9.387,0,17.067,7.68,17.067,17.067C50.2,264.387,42.52,272.067,33.133,272.067z"/>
		<path d="M476.867,220.867c-18.773,0-34.133,15.36-34.133,34.133s15.36,34.133,34.133,34.133C495.64,289.133,511,273.773,511,255
			S495.64,220.867,476.867,220.867z M476.867,272.067c-9.387,0-17.067-7.68-17.067-17.067c0-9.387,7.68-17.067,17.067-17.067
			s17.067,7.68,17.067,17.067C493.933,264.387,486.253,272.067,476.867,272.067z"/>
		<path d="M255,84.333c-91.006,0-165.966,72.19-170.452,162.133h-0.215V255v8.533h0.215
			C89.034,353.476,163.994,425.667,255,425.667s165.966-72.19,170.452-162.133h0.215V255v-8.533h-0.215
			C420.966,156.524,346.006,84.333,255,84.333z M255,101.4c81.92,0,149.333,64,153.6,145.067H101.4
			C105.667,165.4,173.08,101.4,255,101.4z M255,408.6c-81.92,0-149.333-64-153.6-145.067h307.2
			C404.333,344.6,336.92,408.6,255,408.6z"/>
	</g>
</svg>
