<svg width="512" height="512" viewBox="0 0 512 512" fill="none" xmlns="http://www.w3.org/2000/svg">
<g id="minderstack-logo">
<g id="circle">
<circle id="bg-ellipse" cx="256" cy="256" r="245" fill="#7C6AEF" fill-opacity="0.5"/>
<circle id="main-ellipse" cx="256" cy="256" r="200" fill="#7C6AEF"/>
<g id="stack">
<path id="Vector" d="M352.141 244.596L255.99 296.957L159.855 244.596C155.252 242.089 149.554 243.867 147.114 248.557C144.658 253.244 146.4 259.06 150.99 261.561L251.564 316.33C252.951 317.085 254.471 317.461 255.995 317.461C257.527 317.461 259.045 317.09 260.435 316.33L361.014 261.561C365.592 259.06 367.333 253.244 364.89 248.557C362.433 243.867 356.73 242.088 352.141 244.596Z" fill="white"/>
<path id="Vector_2" d="M360.406 203.626L259.826 157.838C257.391 156.721 254.608 156.721 252.16 157.838L151.584 203.626C148.301 205.118 146.133 208.403 146.011 212.074C145.894 215.738 147.816 219.161 150.99 220.886L251.565 275.64C252.952 276.4 254.472 276.771 255.996 276.771C257.528 276.771 259.046 276.4 260.435 275.64L361.014 220.886C364.186 219.161 366.11 215.738 365.995 212.074C365.857 208.403 363.694 205.118 360.406 203.626Z" fill="white"/>
<path id="Vector_3" d="M352.141 282.152L255.99 334.495L159.855 282.152C155.252 279.643 149.554 281.423 147.114 286.106C144.658 290.794 146.4 296.616 150.99 299.112L251.564 353.865C252.951 354.624 254.471 355 255.995 355C257.527 355 259.045 354.629 260.435 353.865L361.014 299.112C365.592 296.616 367.333 290.794 364.89 286.106C362.433 281.423 356.737 279.642 352.141 282.152Z" fill="white"/>
</g>
</g>
<circle id="small-moon" cx="455.5" cy="108.5" r="17.5" fill="#7C6AEF"/>
<circle id="big-moon" cx="421" cy="56" r="35" fill="#7C6AEF"/>
</g>
</svg>
