<svg width="134" height="40" viewBox="0 0 134 40" fill="none" xmlns="http://www.w3.org/2000/svg">
<path d="M54.99 20.16C54.99 18.8133 55.19 17.6067 55.59 16.54C55.9967 15.4733 56.6133 14.63 57.44 14.01C58.2667 13.39 59.3133 13.08 60.58 13.08C61.8533 13.08 62.9 13.3933 63.72 14.02C64.5467 14.64 65.16 15.4833 65.56 16.55C65.9667 17.6167 66.17 18.82 66.17 20.16C66.17 21.5133 65.9667 22.7267 65.56 23.8C65.16 24.8667 64.5467 25.71 63.72 26.33C62.8933 26.95 61.8467 27.26 60.58 27.26C59.3067 27.26 58.2567 26.95 57.43 26.33C56.6033 25.7033 55.99 24.8533 55.59 23.78C55.19 22.7067 54.99 21.5 54.99 20.16ZM57.22 20.16C57.22 20.7667 57.2633 21.3867 57.35 22.02C57.4433 22.6467 57.61 23.23 57.85 23.77C58.09 24.3033 58.43 24.7367 58.87 25.07C59.31 25.3967 59.88 25.56 60.58 25.56C61.2733 25.56 61.84 25.3967 62.28 25.07C62.72 24.7367 63.0567 24.3033 63.29 23.77C63.53 23.23 63.6933 22.6467 63.78 22.02C63.8733 21.3867 63.92 20.7667 63.92 20.16C63.92 19.5533 63.8733 18.9367 63.78 18.31C63.6933 17.6767 63.53 17.0933 63.29 16.56C63.0567 16.0267 62.72 15.5967 62.28 15.27C61.84 14.9433 61.2733 14.78 60.58 14.78C59.88 14.78 59.31 14.9433 58.87 15.27C58.43 15.5967 58.09 16.0267 57.85 16.56C57.61 17.0933 57.4433 17.6767 57.35 18.31C57.2633 18.9367 57.22 19.5533 57.22 20.16ZM68.1641 18.08C68.2107 17.8933 68.3074 17.69 68.4541 17.47C68.6007 17.25 68.7541 17.0867 68.9141 16.98C69.3941 17.0867 69.7841 17.2933 70.0841 17.6C70.3907 17.9067 70.6141 18.2933 70.7541 18.76C70.9874 18.2533 71.3141 17.8333 71.7341 17.5C72.1541 17.16 72.6974 16.99 73.3641 16.99C73.5441 16.99 73.7174 17 73.8841 17.02C74.0507 17.04 74.2307 17.0667 74.4241 17.1C74.4241 17.38 74.3841 17.7067 74.3041 18.08C74.2307 18.4467 74.1041 18.77 73.9241 19.05C73.7907 19.0167 73.6541 18.9967 73.5141 18.99C73.3807 18.9767 73.2474 18.9667 73.1141 18.96C72.5741 18.96 72.1307 19.1133 71.7841 19.42C71.4441 19.72 71.1707 20.0733 70.9641 20.48V27C70.6841 27.0533 70.3407 27.08 69.9341 27.08C69.5341 27.08 69.1907 27.0533 68.9041 27V20.14C68.9041 19.6067 68.8241 19.17 68.6641 18.83C68.5041 18.49 68.3374 18.24 68.1641 18.08ZM84.2173 21.94C84.2173 23.1067 84.014 24.0767 83.6073 24.85C83.2007 25.6167 82.6573 26.1933 81.9773 26.58C81.2973 26.96 80.5473 27.15 79.7273 27.15C79.0873 27.15 78.4607 27.0933 77.8473 26.98C77.234 26.8667 76.6473 26.7067 76.0873 26.5V12.42L76.2173 12.29H76.9873C77.4207 12.29 77.714 12.3967 77.8673 12.61C78.0273 12.8167 78.1073 13.15 78.1073 13.61V17.97C78.434 17.6967 78.8173 17.46 79.2573 17.26C79.704 17.0533 80.204 16.95 80.7573 16.95C81.5173 16.95 82.154 17.1633 82.6673 17.59C83.1807 18.0167 83.5673 18.6067 83.8273 19.36C84.0873 20.1067 84.2173 20.9667 84.2173 21.94ZM80.2773 18.68C79.8907 18.6733 79.504 18.7733 79.1173 18.98C78.7373 19.1867 78.4007 19.46 78.1073 19.8V25.38C78.6007 25.54 79.144 25.62 79.7373 25.62C80.4307 25.62 80.9973 25.3133 81.4373 24.7C81.884 24.0867 82.1073 23.1733 82.1073 21.96C82.1073 20.8 81.9307 19.9633 81.5773 19.45C81.2307 18.9367 80.7973 18.68 80.2773 18.68ZM88.9742 27C88.6876 27.0533 88.3442 27.08 87.9442 27.08C87.5376 27.08 87.1909 27.0533 86.9042 27V19.67C86.9042 19.3167 86.8409 19.0567 86.7142 18.89C86.5876 18.7167 86.3609 18.63 86.0342 18.63H85.8142C85.7542 18.3967 85.7242 18.1567 85.7242 17.91C85.7242 17.6567 85.7542 17.4033 85.8142 17.15C86.0676 17.1167 86.3042 17.0933 86.5242 17.08C86.7509 17.0667 86.9376 17.06 87.0842 17.06H87.3542C87.8542 17.06 88.2476 17.22 88.5342 17.54C88.8276 17.8533 88.9742 18.2867 88.9742 18.84V27ZM86.2942 14.46C86.2942 14.12 86.3542 13.8233 86.4742 13.57C86.5942 13.4967 86.7576 13.4367 86.9642 13.39C87.1709 13.3433 87.3742 13.32 87.5742 13.32C87.7609 13.32 87.9642 13.3433 88.1842 13.39C88.4042 13.4367 88.5676 13.4967 88.6742 13.57C88.7342 13.6833 88.7776 13.8267 88.8042 14C88.8376 14.1667 88.8542 14.32 88.8542 14.46C88.8542 14.7933 88.7942 15.09 88.6742 15.35C88.5742 15.4233 88.4109 15.4833 88.1842 15.53C87.9642 15.57 87.7609 15.59 87.5742 15.59C87.3742 15.59 87.1676 15.57 86.9542 15.53C86.7476 15.4833 86.5876 15.4233 86.4742 15.35C86.3542 15.09 86.2942 14.7933 86.2942 14.46ZM97.4839 20.74C97.4839 20.04 97.3839 19.5433 97.1839 19.25C96.9839 18.9567 96.6872 18.81 96.2939 18.81C95.9472 18.8167 95.5772 18.9333 95.1839 19.16C94.7972 19.38 94.4472 19.67 94.1339 20.03V27C93.8539 27.0533 93.5106 27.08 93.1039 27.08C92.6972 27.08 92.3506 27.0533 92.0639 27V17.18L92.1939 17.04H92.9639C93.3572 17.04 93.6406 17.15 93.8139 17.37C93.9939 17.59 94.0972 17.8967 94.1239 18.29C94.5239 17.89 94.9672 17.5667 95.4539 17.32C95.9406 17.0733 96.4406 16.95 96.9539 16.95C97.5206 16.95 97.9939 17.0833 98.3739 17.35C98.7539 17.6167 99.0406 17.9733 99.2339 18.42C99.6939 17.9933 100.194 17.6433 100.734 17.37C101.281 17.09 101.841 16.95 102.414 16.95C103.287 16.95 103.931 17.2533 104.344 17.86C104.764 18.4667 104.974 19.2033 104.974 20.07V24.89C104.974 25.2367 104.997 25.5667 105.044 25.88C105.091 26.1867 105.177 26.4567 105.304 26.69C105.157 26.8167 104.967 26.92 104.734 27C104.501 27.0867 104.257 27.13 104.004 27.13C103.604 27.13 103.321 27.02 103.154 26.8C102.994 26.58 102.914 26.2533 102.914 25.82V20.72C102.914 20.02 102.811 19.5267 102.604 19.24C102.397 18.9533 102.097 18.81 101.704 18.81C101.377 18.81 101.017 18.92 100.624 19.14C100.237 19.36 99.8772 19.66 99.5439 20.04V20.06V27C99.2639 27.0533 98.9239 27.08 98.5239 27.08C98.1172 27.08 97.7706 27.0533 97.4839 27V20.74ZM110.341 27C110.055 27.0533 109.711 27.08 109.311 27.08C108.905 27.08 108.558 27.0533 108.271 27V19.67C108.271 19.3167 108.208 19.0567 108.081 18.89C107.955 18.7167 107.728 18.63 107.401 18.63H107.181C107.121 18.3967 107.091 18.1567 107.091 17.91C107.091 17.6567 107.121 17.4033 107.181 17.15C107.435 17.1167 107.671 17.0933 107.891 17.08C108.118 17.0667 108.305 17.06 108.451 17.06H108.721C109.221 17.06 109.615 17.22 109.901 17.54C110.195 17.8533 110.341 18.2867 110.341 18.84V27ZM107.661 14.46C107.661 14.12 107.721 13.8233 107.841 13.57C107.961 13.4967 108.125 13.4367 108.331 13.39C108.538 13.3433 108.741 13.32 108.941 13.32C109.128 13.32 109.331 13.3433 109.551 13.39C109.771 13.4367 109.935 13.4967 110.041 13.57C110.101 13.6833 110.145 13.8267 110.171 14C110.205 14.1667 110.221 14.32 110.221 14.46C110.221 14.7933 110.161 15.09 110.041 15.35C109.941 15.4233 109.778 15.4833 109.551 15.53C109.331 15.57 109.128 15.59 108.941 15.59C108.741 15.59 108.535 15.57 108.321 15.53C108.115 15.4833 107.955 15.4233 107.841 15.35C107.721 15.09 107.661 14.7933 107.661 14.46ZM121.311 24.89C121.311 25.2367 121.334 25.5667 121.381 25.88C121.428 26.1867 121.514 26.4567 121.641 26.69C121.494 26.8167 121.304 26.92 121.071 27C120.838 27.0867 120.594 27.13 120.341 27.13C119.941 27.13 119.658 27.02 119.491 26.8C119.331 26.58 119.251 26.2533 119.251 25.82V20.73C119.251 20.0633 119.164 19.5767 118.991 19.27C118.818 18.9633 118.488 18.81 118.001 18.81C117.608 18.81 117.181 18.92 116.721 19.14C116.261 19.36 115.854 19.66 115.501 20.04V27C115.221 27.0533 114.878 27.08 114.471 27.08C114.064 27.08 113.718 27.0533 113.431 27V17.17L113.561 17.04H114.341C114.728 17.04 115.008 17.15 115.181 17.37C115.361 17.5833 115.464 17.8833 115.491 18.27C115.918 17.8833 116.404 17.5667 116.951 17.32C117.498 17.0733 118.068 16.95 118.661 16.95C119.288 16.95 119.794 17.0967 120.181 17.39C120.574 17.6767 120.861 18.07 121.041 18.57C121.221 19.0633 121.311 19.6167 121.311 20.23V24.89ZM123.669 22.18C123.669 20.9933 123.856 20.0133 124.229 19.24C124.602 18.4667 125.082 17.8933 125.669 17.52C126.256 17.14 126.869 16.95 127.509 16.95C127.929 16.95 128.326 17.0133 128.699 17.14C129.072 17.26 129.429 17.4167 129.769 17.61V12.42L129.899 12.29H130.679C131.112 12.29 131.406 12.3967 131.559 12.61C131.719 12.8167 131.799 13.15 131.799 13.61V24.19C131.799 24.5767 131.836 24.94 131.909 25.28C131.989 25.62 132.139 25.8867 132.359 26.08C132.306 26.2667 132.202 26.4667 132.049 26.68C131.902 26.8867 131.746 27.0433 131.579 27.15C131.179 27.07 130.852 26.92 130.599 26.7C130.346 26.48 130.152 26.2133 130.019 25.9C129.679 26.2867 129.259 26.61 128.759 26.87C128.266 27.13 127.716 27.26 127.109 27.26C126.349 27.26 125.712 27.0467 125.199 26.62C124.692 26.1867 124.309 25.59 124.049 24.83C123.796 24.0633 123.669 23.18 123.669 22.18ZM125.779 22.19C125.779 23.3833 125.959 24.24 126.319 24.76C126.679 25.28 127.102 25.54 127.589 25.54C127.942 25.54 128.316 25.4367 128.709 25.23C129.109 25.0233 129.462 24.7033 129.769 24.27V19.33C129.469 19.13 129.149 18.96 128.809 18.82C128.476 18.68 128.136 18.61 127.789 18.61C127.229 18.61 126.752 18.9033 126.359 19.49C125.972 20.07 125.779 20.97 125.779 22.19Z" fill="black"/>
<path d="M20 39.1406C30.5711 39.1406 39.1406 30.5711 39.1406 20C39.1406 9.42892 30.5711 0.859375 20 0.859375C9.42892 0.859375 0.859375 9.42892 0.859375 20C0.859375 30.5711 9.42892 39.1406 20 39.1406Z" fill="#7C6AEF" fill-opacity="0.55"/>
<path d="M20 35.625C28.6294 35.625 35.625 28.6294 35.625 20C35.625 11.3706 28.6294 4.375 20 4.375C11.3706 4.375 4.375 11.3706 4.375 20C4.375 28.6294 11.3706 35.625 20 35.625Z" fill="#7C6AEF"/>
<path d="M27.5112 19.1093L19.9993 23.1999L12.4887 19.1093C12.1291 18.9134 11.6839 19.0523 11.4933 19.4187C11.3014 19.7849 11.4375 20.2392 11.7961 20.4346L19.6535 24.7134C19.7619 24.7724 19.8806 24.8018 19.9997 24.8018C20.1194 24.8018 20.238 24.7728 20.3466 24.7134L28.2044 20.4346C28.562 20.2392 28.698 19.7849 28.5072 19.4187C28.3152 19.0523 27.8697 18.9133 27.5112 19.1093Z" fill="white"/>
<path d="M28.1569 15.9083L20.2991 12.3311C20.1088 12.2438 19.8914 12.2438 19.7001 12.3311L11.8426 15.9083C11.5862 16.0248 11.4168 16.2815 11.4073 16.5683C11.3981 16.8545 11.5483 17.1219 11.7962 17.2567L19.6537 21.5344C19.762 21.5937 19.8808 21.6227 19.9998 21.6227C20.1195 21.6227 20.2381 21.5937 20.3466 21.5344L28.2044 17.2567C28.4522 17.1219 28.6025 16.8545 28.5935 16.5683C28.5827 16.2815 28.4137 16.0248 28.1569 15.9083Z" fill="white"/>
<path d="M27.5112 22.0433L19.9993 26.1326L12.4887 22.0433C12.1291 21.8473 11.6839 21.9863 11.4933 22.3522C11.3014 22.7184 11.4375 23.1733 11.7961 23.3683L19.6535 27.6458C19.7619 27.7051 19.8806 27.7345 19.9997 27.7345C20.1194 27.7345 20.238 27.7055 20.3466 27.6458L28.2044 23.3683C28.562 23.1733 28.698 22.7184 28.5072 22.3522C28.3152 21.9863 27.8702 21.8472 27.5112 22.0433Z" fill="white"/>
<path d="M35.5859 9.84375C36.341 9.84375 36.9531 9.23164 36.9531 8.47656C36.9531 7.72149 36.341 7.10938 35.5859 7.10938C34.8309 7.10938 34.2188 7.72149 34.2188 8.47656C34.2188 9.23164 34.8309 9.84375 35.5859 9.84375Z" fill="#7C6AEF"/>
<path d="M32.8906 7.10938C34.4008 7.10938 35.625 5.88515 35.625 4.375C35.625 2.86485 34.4008 1.64062 32.8906 1.64062C31.3805 1.64062 30.1562 2.86485 30.1562 4.375C30.1562 5.88515 31.3805 7.10938 32.8906 7.10938Z" fill="#7C6AEF"/>
</svg>
