<svg width="512" height="512" fill="none" xmlns="http://www.w3.org/2000/svg"><circle cx="256" cy="256" r="245" fill="#7C6AEF" fill-opacity=".5"/><circle cx="256" cy="256" r="200" fill="#7C6AEF"/><g fill="#fff"><path d="m352.141 244.596-96.151 52.361-96.135-52.361c-4.603-2.507-10.301-.729-12.741 3.961-2.456 4.687-.714 10.503 3.876 13.004l100.574 54.769a9.25 9.25 0 0 0 4.431 1.131c1.532 0 3.05-.371 4.44-1.131l100.579-54.769c4.578-2.501 6.319-8.317 3.876-13.004-2.457-4.69-8.16-6.469-12.749-3.961z"/><path d="m360.406 203.626-100.58-45.788a9.188 9.188 0 0 0-7.666 0l-100.576 45.788c-3.283 1.492-5.451 4.777-5.573 8.448-.117 3.664 1.805 7.087 4.979 8.812l100.575 54.754a9.194 9.194 0 0 0 4.431 1.131c1.532 0 3.05-.371 4.439-1.131l100.579-54.754c3.172-1.725 5.096-5.148 4.981-8.812-.138-3.671-2.301-6.956-5.589-8.448zM352.141 282.152l-96.151 52.343-96.135-52.343c-4.603-2.509-10.301-.729-12.741 3.954-2.456 4.688-.714 10.51 3.876 13.006l100.574 54.753a9.21 9.21 0 0 0 4.431 1.135c1.532 0 3.05-.371 4.44-1.135l100.579-54.753c4.578-2.496 6.319-8.318 3.876-13.006-2.457-4.683-8.153-6.464-12.749-3.954z"/></g><circle cx="455.5" cy="108.5" r="17.5" fill="#7C6AEF"/><circle cx="421" cy="56" r="35" fill="#7C6AEF"/></svg>