<svg width="134" height="40" fill="none" xmlns="http://www.w3.org/2000/svg"><path d="M54.99 20.16c0-1.347.2-2.553.6-3.62.407-1.067 1.023-1.91 1.85-2.53.827-.62 1.873-.93 3.14-.93 1.273 0 2.32.313 3.14.94.827.62 1.44 1.463 1.84 2.53.407 1.067.61 2.27.61 3.61 0 1.353-.203 2.567-.61 3.64-.4 1.067-1.013 1.91-1.84 2.53-.827.62-1.873.93-3.14.93-1.273 0-2.323-.31-3.15-.93-.827-.627-1.44-1.477-1.84-2.55-.4-1.073-.6-2.28-.6-3.62zm2.23 0c0 .607.043 1.227.13 1.86.093.627.26 1.21.5 1.75.24.533.58.967 1.02 1.3.44.327 1.01.49 1.71.49.693 0 1.26-.163 1.7-.49.44-.333.777-.767 1.01-1.3.24-.54.403-1.123.49-1.75.093-.633.14-1.253.14-1.86 0-.607-.047-1.223-.14-1.85a6.335 6.335 0 0 0-.49-1.75 3.138 3.138 0 0 0-1.01-1.29c-.44-.327-1.007-.49-1.7-.49-.7 0-1.27.163-1.71.49-.44.327-.78.757-1.02 1.29a6.58 6.58 0 0 0-.5 1.75c-.087.627-.13 1.243-.13 1.85zm10.944-2.08a2 2 0 0 1 .29-.61c.147-.22.3-.383.46-.49.48.107.87.313 1.17.62.307.307.53.693.67 1.16.233-.507.56-.927.98-1.26.42-.34.963-.51 1.63-.51.18 0 .353.01.52.03.167.02.347.047.54.08 0 .28-.04.607-.12.98-.073.367-.2.69-.38.97a2.103 2.103 0 0 0-.41-.06 8.16 8.16 0 0 0-.4-.03c-.54 0-.983.153-1.33.46-.34.3-.613.653-.82 1.06V27a5.62 5.62 0 0 1-1.03.08c-.4 0-.743-.027-1.03-.08v-6.86c0-.533-.08-.97-.24-1.31-.16-.34-.327-.59-.5-.75zm16.053 3.86c0 1.167-.203 2.137-.61 2.91-.406.767-.95 1.343-1.63 1.73-.68.38-1.43.57-2.25.57-.64 0-1.266-.057-1.88-.17-.613-.113-1.2-.273-1.76-.48V12.42l.13-.13h.77c.434 0 .727.107.88.32.16.207.24.54.24 1v4.36c.327-.273.71-.51 1.15-.71a3.53 3.53 0 0 1 1.5-.31c.76 0 1.397.213 1.91.64.514.427.9 1.017 1.16 1.77.26.747.39 1.607.39 2.58zm-3.94-3.26a2.353 2.353 0 0 0-1.16.3c-.38.207-.716.48-1.01.82v5.58c.494.16 1.037.24 1.63.24.694 0 1.26-.307 1.7-.92.447-.613.67-1.527.67-2.74 0-1.16-.176-1.997-.53-2.51-.346-.513-.78-.77-1.3-.77zM88.974 27c-.286.053-.63.08-1.03.08a5.79 5.79 0 0 1-1.04-.08v-7.33c0-.353-.063-.613-.19-.78-.126-.173-.353-.26-.68-.26h-.22a2.88 2.88 0 0 1-.09-.72c0-.253.03-.507.09-.76a10.194 10.194 0 0 1 1.27-.09h.27c.5 0 .894.16 1.18.48.294.313.44.747.44 1.3V27zm-2.68-12.54c0-.34.06-.637.18-.89a1.65 1.65 0 0 1 .49-.18c.207-.047.41-.07.61-.07.187 0 .39.023.61.07.22.047.384.107.49.18.06.113.104.257.13.43.034.167.05.32.05.46 0 .333-.06.63-.18.89-.1.073-.263.133-.49.18-.22.04-.423.06-.61.06-.2 0-.406-.02-.62-.06a1.511 1.511 0 0 1-.48-.18c-.12-.26-.18-.557-.18-.89zm11.19 6.28c0-.7-.1-1.197-.3-1.49-.2-.293-.497-.44-.89-.44-.347.007-.717.123-1.11.35-.387.22-.737.51-1.05.87V27c-.28.053-.623.08-1.03.08-.407 0-.753-.027-1.04-.08v-9.82l.13-.14h.77c.393 0 .677.11.85.33.18.22.283.527.31.92.4-.4.843-.723 1.33-.97.487-.247.987-.37 1.5-.37.567 0 1.04.133 1.42.4.38.267.667.623.86 1.07.46-.427.96-.777 1.5-1.05a3.647 3.647 0 0 1 1.68-.42c.873 0 1.517.303 1.93.91.42.607.63 1.343.63 2.21v4.82c0 .347.023.677.07.99.047.307.133.577.26.81-.147.127-.337.23-.57.31-.233.087-.477.13-.73.13-.4 0-.683-.11-.85-.33-.16-.22-.24-.547-.24-.98v-5.1c0-.7-.103-1.193-.31-1.48-.207-.287-.507-.43-.9-.43-.327 0-.687.11-1.08.33-.387.22-.747.52-1.08.9V27c-.28.053-.62.08-1.02.08-.407 0-.753-.027-1.04-.08v-6.26zM110.34 27c-.286.053-.63.08-1.03.08-.406 0-.753-.027-1.04-.08v-7.33c0-.353-.063-.613-.19-.78-.126-.173-.353-.26-.68-.26h-.22a2.88 2.88 0 0 1-.09-.72c0-.253.03-.507.09-.76a10.23 10.23 0 0 1 1.27-.09h.27c.5 0 .894.16 1.18.48.294.313.44.747.44 1.3V27zm-2.68-12.54c0-.34.06-.637.18-.89.12-.073.284-.133.49-.18.207-.047.41-.07.61-.07.187 0 .39.023.61.07.22.047.384.107.49.18.06.113.104.257.13.43.034.167.05.32.05.46 0 .333-.06.63-.18.89-.1.073-.263.133-.49.18-.22.04-.423.06-.61.06-.2 0-.406-.02-.62-.06a1.523 1.523 0 0 1-.48-.18c-.12-.26-.18-.557-.18-.89zm13.65 10.43c0 .347.023.677.07.99.047.307.133.577.26.81-.147.127-.337.23-.57.31-.233.087-.477.13-.73.13-.4 0-.683-.11-.85-.33-.16-.22-.24-.547-.24-.98v-5.09c0-.667-.087-1.153-.26-1.46-.173-.307-.503-.46-.99-.46-.393 0-.82.11-1.28.33-.46.22-.867.52-1.22.9V27c-.28.053-.623.08-1.03.08-.407 0-.753-.027-1.04-.08v-9.83l.13-.13h.78c.387 0 .667.11.84.33.18.213.283.513.31.9a5.567 5.567 0 0 1 1.46-.95 4.115 4.115 0 0 1 1.71-.37c.627 0 1.133.147 1.52.44.393.287.68.68.86 1.18.18.493.27 1.047.27 1.66v4.66zm2.358-2.71c0-1.187.187-2.167.56-2.94.373-.773.853-1.347 1.44-1.72.587-.38 1.2-.57 1.84-.57.42 0 .817.063 1.19.19.373.12.73.277 1.07.47v-5.19l.13-.13h.78c.433 0 .727.107.88.32.16.207.24.54.24 1v10.58c0 .387.037.75.11 1.09.08.34.23.607.45.8a1.987 1.987 0 0 1-.31.6 1.745 1.745 0 0 1-.47.47c-.4-.08-.727-.23-.98-.45a2.17 2.17 0 0 1-.58-.8c-.34.387-.76.71-1.26.97-.493.26-1.043.39-1.65.39-.76 0-1.397-.213-1.91-.64-.507-.433-.89-1.03-1.15-1.79-.253-.767-.38-1.65-.38-2.65zm2.11.01c0 1.193.18 2.05.54 2.57.36.52.783.78 1.27.78.353 0 .727-.103 1.12-.31.4-.207.753-.527 1.06-.96v-4.94c-.3-.2-.62-.37-.96-.51a2.61 2.61 0 0 0-1.02-.21c-.56 0-1.037.293-1.43.88-.387.58-.58 1.48-.58 2.7z" fill="#7C6AEF"/><path d="M20 39.14c10.571 0 19.14-8.569 19.14-19.14S30.572.86 20 .86.86 9.428.86 20 9.428 39.14 20 39.14z" fill="#7C6AEF" fill-opacity=".55"/><path d="M20 35.625c8.63 0 15.625-6.996 15.625-15.625 0-8.63-6.996-15.625-15.625-15.625-8.63 0-15.625 6.996-15.625 15.625 0 8.63 6.996 15.625 15.625 15.625z" fill="#7C6AEF"/><path d="M27.511 19.11 20 23.2l-7.51-4.09a.727.727 0 0 0-.996.309.758.758 0 0 0 .303 1.016l7.858 4.278a.723.723 0 0 0 .693 0l7.857-4.278a.76.76 0 0 0 .303-1.016.728.728 0 0 0-.996-.31z" fill="#fff"/><path d="m28.157 15.908-7.858-3.577a.718.718 0 0 0-.599 0l-7.857 3.577a.751.751 0 0 0-.436.66.754.754 0 0 0 .39.689l7.857 4.277a.719.719 0 0 0 .693 0l7.857-4.277a.755.755 0 0 0 .39-.689.754.754 0 0 0-.437-.66zM27.511 22.043 20 26.133l-7.51-4.09a.727.727 0 0 0-.996.31.758.758 0 0 0 .303 1.015l7.858 4.278a.72.72 0 0 0 .693 0l7.857-4.278a.76.76 0 0 0 .303-1.016.728.728 0 0 0-.996-.309z" fill="#fff"/><path d="M35.586 9.844a1.367 1.367 0 1 0 0-2.735 1.367 1.367 0 0 0 0 2.735zM32.89 7.11a2.734 2.734 0 1 0 0-5.47 2.734 2.734 0 0 0 0 5.47z" fill="#7C6AEF"/></svg>