<svg viewBox="1 0 512 511" xmlns="http://www.w3.org/2000/svg"><path d="m512 255.5-.004 1c-.187 48.668-14.078 95.938-40.2 136.777-3.816 5.965-10.273 9.227-16.866 9.227a19.924 19.924 0 0 1-10.758-3.156c-9.305-5.953-12.024-18.32-6.07-27.625C460.188 337.195 471.906 297.187 472 256c-.27-118.875-96.617-215.5-215-215.5-75.64 0-145.82 40.125-184.684 103.93l45.715.07c11.047.016 19.985 8.984 19.969 20.031-.016 11.031-8.969 19.969-20 19.969h-.031l-58.516-.09c-15.941.035-30.781-6.066-41.933-17.215C6.156 155.832-.066 140.578 0 124.242V66.5c0-11.047 8.953-20 20-20s20 8.953 20 20v54.105c19.79-31.57 46.29-58.543 77.844-79.015C159.28 14.707 207.398.5 257 .5c68.34 0 132.465 26.645 180.563 75.023C485.327 123.57 511.743 187.453 512 255.5zM380.543 432.703C344.215 458.082 301.496 471.5 257 471.5c-.168 0-.332.02-.5.023-.168-.003-.332-.023-.5-.023-3.035 0-6.121-.066-9.172-.191-11.004-.461-20.351 8.117-20.812 19.152-.457 11.035 8.117 20.355 19.156 20.812 3.598.149 7.242.227 10.828.227.168 0 .332-.02.5-.023.168.003.332.023.5.023 52.73 0 103.371-15.906 146.453-46.004 9.055-6.328 11.27-18.797 4.942-27.851-6.325-9.055-18.793-11.266-27.852-4.942zm-283.129-30.55c-7.5-8.106-20.156-8.602-28.262-1.098-8.109 7.5-8.601 20.152-1.097 28.261a259.781 259.781 0 0 0 14.144 14.149 19.931 19.931 0 0 0 13.578 5.316 19.953 19.953 0 0 0 14.688-6.418c7.5-8.105 7.008-20.761-1.098-28.261a216.897 216.897 0 0 1-11.953-11.95zM53.437 330.68c-3.847-10.356-15.355-15.637-25.71-11.79-10.356 3.844-15.633 15.356-11.79 25.712a255.1 255.1 0 0 0 7.7 18.476c3.386 7.3 10.61 11.594 18.16 11.594 2.816 0 5.676-.602 8.398-1.863 10.024-4.645 14.38-16.536 9.73-26.559a215.832 215.832 0 0 1-6.488-15.57zm127.418 127.394a214.68 214.68 0 0 1-15.582-6.492c-10.023-4.648-21.914-.293-26.558 9.73-4.649 10.02-.293 21.91 9.726 26.56a254.232 254.232 0 0 0 18.5 7.702 19.949 19.949 0 0 0 6.954 1.258c8.125 0 15.761-4.988 18.753-13.05 3.84-10.356-1.437-21.864-11.793-25.708zM21.04 285.48c11.04-.457 19.613-9.777 19.152-20.812A223.87 223.87 0 0 1 40 255.5c0-11.047-8.953-20-20-20s-20 8.953-20 20c0 3.602.078 7.246.227 10.832C.672 277.086 9.53 285.5 20.19 285.5c.282 0 .567-.008.848-.02zm158.492-18.761c6.297-5.125 13.094-9.559 20.239-13.293C188.098 240.059 181 222.598 181 203.5c0-41.906 34.094-76 76-76s76 34.094 76 76c0 19.098-7.098 36.559-18.773 49.926a120.404 120.404 0 0 1 20.242 13.293c21.308 17.34 36.129 41.554 41.73 68.176 2.305 10.94-.418 22.199-7.465 30.882-7.074 8.723-17.593 13.723-28.859 13.723h-165.75c-11.266 0-21.785-5-28.86-13.723-7.046-8.683-9.769-19.941-7.468-30.882 5.601-26.622 20.422-50.836 41.734-68.176zM221 203.5c0 19.852 16.148 36 36 36s36-16.148 36-36-16.148-36-36-36-36 16.148-36 36zm-43.203 136h158.406c-9.121-34.984-41.555-60-78.523-60h-1.36c-36.968 0-69.402 25.016-78.523 60zm0 0"/></svg>