<svg viewBox="1 0 511.99954 511" xmlns="http://www.w3.org/2000/svg">
    <path d="m512 255.5-.003906 1c-.1875 48.667969-14.078125 95.9375-40.199219 136.777344-3.816406 5.964844-10.273437 9.226562-16.867187 9.226562-3.6875 0-7.421876-1.023437-10.757813-3.15625-9.304687-5.953125-12.023437-18.320312-6.070313-27.625 22.085938-34.527344 33.804688-74.535156 33.898438-115.722656-.269531-118.875-96.617188-215.5-215-215.5-75.640625 0-145.820312 40.125-184.683594 103.929688l45.714844.070312c11.046875.015625 19.984375 8.984375 19.96875 20.03125-.015625 11.03125-8.96875 19.96875-20 19.96875-.007812 0-.019531 0-.03125 0l-58.515625-.089844c-15.941406.035156-30.78125-6.066406-41.933594-17.214844-11.363281-11.363281-17.5859372-26.617187-17.519531-42.953124v-57.742188c0-11.046875 8.953125-20 20-20s20 8.953125 20 20v54.105469c19.789062-31.570313 46.289062-58.542969 77.84375-79.015625 41.4375-26.882813 89.554688-41.089844 139.15625-41.089844 68.339844 0 132.464844 26.644531 180.5625 75.023438 47.765625 48.046874 74.179688 111.929687 74.4375 179.976562zm-131.457031 177.203125c-36.328125 25.378906-79.046875 38.796875-123.542969 38.796875-.167969 0-.332031.019531-.5.023438-.167969-.003907-.332031-.023438-.5-.023438-3.035156 0-6.121094-.066406-9.171875-.191406-11.003906-.460938-20.351563 8.117187-20.8125 19.152344-.457031 11.035156 8.117187 20.355468 19.15625 20.8125 3.597656.148437 7.242187.226562 10.828125.226562.167969 0 .332031-.019531.5-.023438.167969.003907.332031.023438.5.023438 52.730469 0 103.371094-15.90625 146.453125-46.003906 9.054687-6.328125 11.269531-18.796875 4.941406-27.851563-6.324219-9.054687-18.792969-11.265625-27.851562-4.941406zm-283.128907-30.550781c-7.5-8.105469-20.15625-8.601563-28.261718-1.097656-8.109375 7.5-8.601563 20.152343-1.097656 28.261718 4.507812 4.875 9.269531 9.632813 14.144531 14.148438 3.847656 3.558594 8.71875 5.316406 13.578125 5.316406 5.378906 0 10.742187-2.15625 14.6875-6.417969 7.5-8.105469 7.007812-20.761719-1.097656-28.261719-4.125-3.8125-8.144532-7.832031-11.953126-11.949218zm-43.976562-71.472656c-3.847656-10.355469-15.355469-15.636719-25.710938-11.789063-10.355468 3.84375-15.632812 15.355469-11.789062 25.710937 2.3125 6.230469 4.902344 12.445313 7.699219 18.476563 3.386719 7.300781 10.609375 11.59375 18.160156 11.59375 2.816406 0 5.675781-.601563 8.398437-1.863281 10.023438-4.644532 14.378907-16.535156 9.730469-26.558594-2.355469-5.082031-4.539062-10.320312-6.488281-15.570312zm127.417969 127.394531c-5.257813-1.949219-10.5-4.136719-15.582031-6.492188-10.023438-4.648437-21.914063-.292969-26.558594 9.730469-4.648438 10.019531-.292969 21.910156 9.726562 26.558594 6.035156 2.796875 12.257813 5.390625 18.5 7.703125 2.292969.851562 4.644532 1.257812 6.953125 1.257812 8.125 0 15.761719-4.988281 18.753907-13.050781 3.839843-10.355469-1.4375-21.863281-11.792969-25.707031zm-159.816407-172.59375c11.039063-.457031 19.613282-9.777344 19.152344-20.8125-.125-3.035157-.191406-6.121094-.191406-9.167969 0-11.046875-8.953125-20-20-20s-20 8.953125-20 20c0 3.601562.078125 7.246094.226562 10.832031.445313 10.753907 9.304688 19.167969 19.964844 19.167969.28125 0 .566406-.007812.847656-.019531zm158.492188-18.761719c6.296875-5.125 13.09375-9.558594 20.238281-13.292969-11.671875-13.367187-18.769531-30.828125-18.769531-49.925781 0-41.90625 34.09375-76 76-76s76 34.09375 76 76c0 19.097656-7.097656 36.558594-18.773438 49.925781 7.148438 3.734375 13.941407 8.167969 20.242188 13.292969 21.308594 17.339844 36.128906 41.554688 41.730469 68.175781 2.304687 10.941407-.417969 22.199219-7.464844 30.882813-7.074219 8.722656-17.59375 13.722656-28.859375 13.722656h-165.75c-11.265625 0-21.785156-5-28.859375-13.722656-7.046875-8.683594-9.769531-19.941406-7.46875-30.882813 5.601563-26.621093 20.421875-50.835937 41.734375-68.175781zm41.46875-63.21875c0 19.851562 16.148438 36 36 36s36-16.148438 36-36-16.148438-36-36-36-36 16.148438-36 36zm-43.203125 136h158.40625c-9.121094-34.984375-41.554687-60-78.523437-60h-1.359376c-36.96875 0-69.402343 25.015625-78.523437 60zm0 0"/>
</svg>
