<svg viewBox="0 0 512 512" xmlns="http://www.w3.org/2000/svg"><path d="M442.154 145c10.585 0 17.924-10.701 13.955-20.514C442.016 89.645 407.834 65 368 65h-18.414C342.719 28.727 310.916 0 272 0h-32c-38.891 0-70.715 28.708-77.586 65H144c-39.834 0-74.016 24.645-88.109 59.486C51.922 134.299 59.261 145 69.846 145zM240 30h32c21.9 0 40.49 14.734 46.748 35H193.252C199.51 44.734 218.1 30 240 30zM111.053 470.196C112.722 493.638 132.439 512 155.939 512H356.06c23.5 0 43.217-18.362 44.886-41.804L421.969 175H90.031zm185.966-214.945c.414-8.274 7.469-14.655 15.73-14.232 8.274.414 14.646 7.457 14.232 15.73l-8 160c-.401 8.019-7.029 14.251-14.969 14.251-8.637 0-15.42-7.223-14.994-15.749zm-97.768-14.232c8.263-.415 15.317 5.959 15.73 14.232l8 160c.426 8.53-6.362 15.749-14.994 15.749-7.94 0-14.568-6.232-14.969-14.251l-8-160c-.413-8.273 5.959-15.316 14.233-15.73z"/></svg>